<mxfile host="app.diagrams.net" modified="2023-03-30T09:32:51.031Z" agent="Mozilla/5.0 (Windows NT 10.0; Win64; x64) AppleWebKit/537.36 (KHTML, like Gecko) Chrome/111.0.0.0 Safari/537.36" etag="wUGhrNL-Nx4V00za8DuS" version="21.1.2" type="github">
  <diagram name="Страница 1" id="RLnJ5OMds4n3X7nUjwPf">
    <mxGraphModel dx="1804" dy="444" grid="1" gridSize="10" guides="1" tooltips="1" connect="1" arrows="1" fold="1" page="1" pageScale="1" pageWidth="827" pageHeight="1169" math="0" shadow="0">
      <root>
        <mxCell id="0" />
        <mxCell id="1" parent="0" />
        <mxCell id="V7JA6eJu5kfm55jIpqw1-1" value="null" style="rounded=0;whiteSpace=wrap;html=1;fillColor=#d5e8d4;strokeColor=#82b366;" vertex="1" parent="1">
          <mxGeometry x="355" width="80" height="40" as="geometry" />
        </mxCell>
        <mxCell id="V7JA6eJu5kfm55jIpqw1-3" value="" style="edgeStyle=orthogonalEdgeStyle;rounded=0;orthogonalLoop=1;jettySize=auto;html=1;" edge="1" parent="1" source="V7JA6eJu5kfm55jIpqw1-2" target="V7JA6eJu5kfm55jIpqw1-1">
          <mxGeometry relative="1" as="geometry" />
        </mxCell>
        <mxCell id="V7JA6eJu5kfm55jIpqw1-2" value="Object.prototype" style="rounded=0;whiteSpace=wrap;html=1;fillColor=#ffe6cc;strokeColor=#d79b00;" vertex="1" parent="1">
          <mxGeometry x="335" y="120" width="120" height="40" as="geometry" />
        </mxCell>
        <mxCell id="V7JA6eJu5kfm55jIpqw1-5" value="" style="edgeStyle=orthogonalEdgeStyle;rounded=0;orthogonalLoop=1;jettySize=auto;html=1;" edge="1" parent="1" source="V7JA6eJu5kfm55jIpqw1-4" target="V7JA6eJu5kfm55jIpqw1-2">
          <mxGeometry relative="1" as="geometry" />
        </mxCell>
        <mxCell id="V7JA6eJu5kfm55jIpqw1-4" value="Array.prototype" style="rounded=0;whiteSpace=wrap;html=1;fillColor=#dae8fc;strokeColor=#6c8ebf;" vertex="1" parent="1">
          <mxGeometry x="345" y="200" width="100" height="40" as="geometry" />
        </mxCell>
        <mxCell id="V7JA6eJu5kfm55jIpqw1-7" value="" style="edgeStyle=orthogonalEdgeStyle;rounded=0;orthogonalLoop=1;jettySize=auto;html=1;" edge="1" parent="1" source="V7JA6eJu5kfm55jIpqw1-6" target="V7JA6eJu5kfm55jIpqw1-4">
          <mxGeometry relative="1" as="geometry" />
        </mxCell>
        <mxCell id="V7JA6eJu5kfm55jIpqw1-6" value="const arr = [1, 2, 3]" style="rounded=0;whiteSpace=wrap;html=1;fillColor=#ffff88;strokeColor=#36393d;glass=0;shadow=0;" vertex="1" parent="1">
          <mxGeometry x="340" y="280" width="110" height="40" as="geometry" />
        </mxCell>
        <mxCell id="V7JA6eJu5kfm55jIpqw1-21" style="edgeStyle=orthogonalEdgeStyle;rounded=0;orthogonalLoop=1;jettySize=auto;html=1;entryX=1;entryY=0.25;entryDx=0;entryDy=0;" edge="1" parent="1" source="V7JA6eJu5kfm55jIpqw1-8" target="V7JA6eJu5kfm55jIpqw1-2">
          <mxGeometry relative="1" as="geometry">
            <Array as="points">
              <mxPoint x="858" y="130" />
            </Array>
          </mxGeometry>
        </mxCell>
        <mxCell id="V7JA6eJu5kfm55jIpqw1-8" value="&lt;div&gt;const human = {&lt;/div&gt;&lt;div&gt;isHuman: true,&lt;/div&gt;&lt;div&gt;}&lt;/div&gt;" style="rounded=0;whiteSpace=wrap;html=1;fillColor=#ffff88;strokeColor=#36393d;glass=0;shadow=0;" vertex="1" parent="1">
          <mxGeometry x="800" y="280" width="115" height="60" as="geometry" />
        </mxCell>
        <mxCell id="V7JA6eJu5kfm55jIpqw1-49" value="" style="edgeStyle=orthogonalEdgeStyle;rounded=0;orthogonalLoop=1;jettySize=auto;html=1;" edge="1" parent="1" source="V7JA6eJu5kfm55jIpqw1-10" target="V7JA6eJu5kfm55jIpqw1-11">
          <mxGeometry relative="1" as="geometry" />
        </mxCell>
        <mxCell id="V7JA6eJu5kfm55jIpqw1-10" value="const str = &quot;&quot;" style="rounded=0;whiteSpace=wrap;html=1;fillColor=#ffff88;strokeColor=#36393d;glass=0;shadow=0;" vertex="1" parent="1">
          <mxGeometry x="547.5" y="280" width="80" height="40" as="geometry" />
        </mxCell>
        <mxCell id="V7JA6eJu5kfm55jIpqw1-14" style="edgeStyle=orthogonalEdgeStyle;rounded=0;orthogonalLoop=1;jettySize=auto;html=1;entryX=1;entryY=0.75;entryDx=0;entryDy=0;" edge="1" parent="1" source="V7JA6eJu5kfm55jIpqw1-11" target="V7JA6eJu5kfm55jIpqw1-2">
          <mxGeometry relative="1" as="geometry">
            <Array as="points">
              <mxPoint x="600" y="150" />
            </Array>
          </mxGeometry>
        </mxCell>
        <mxCell id="V7JA6eJu5kfm55jIpqw1-11" value="String.prototype" style="rounded=0;whiteSpace=wrap;html=1;fillColor=#dae8fc;strokeColor=#6c8ebf;" vertex="1" parent="1">
          <mxGeometry x="537.5" y="200" width="100" height="40" as="geometry" />
        </mxCell>
        <mxCell id="V7JA6eJu5kfm55jIpqw1-51" value="" style="edgeStyle=orthogonalEdgeStyle;rounded=0;orthogonalLoop=1;jettySize=auto;html=1;" edge="1" parent="1" source="V7JA6eJu5kfm55jIpqw1-15" target="V7JA6eJu5kfm55jIpqw1-8">
          <mxGeometry relative="1" as="geometry" />
        </mxCell>
        <mxCell id="V7JA6eJu5kfm55jIpqw1-15" value="&lt;div&gt;const user = {&lt;/div&gt;&lt;div&gt;name: &quot;Your name&quot;,&lt;/div&gt;&lt;div&gt;__proto__: human,&lt;/div&gt;&lt;div&gt;}&lt;/div&gt;" style="rounded=0;whiteSpace=wrap;html=1;fillColor=#ffcccc;strokeColor=#36393d;glass=0;shadow=0;" vertex="1" parent="1">
          <mxGeometry x="787.5" y="400" width="140" height="60" as="geometry" />
        </mxCell>
        <mxCell id="V7JA6eJu5kfm55jIpqw1-20" style="edgeStyle=orthogonalEdgeStyle;rounded=0;orthogonalLoop=1;jettySize=auto;html=1;entryX=1;entryY=0.5;entryDx=0;entryDy=0;" edge="1" parent="1" source="V7JA6eJu5kfm55jIpqw1-18" target="V7JA6eJu5kfm55jIpqw1-2">
          <mxGeometry relative="1" as="geometry">
            <Array as="points">
              <mxPoint x="720" y="140" />
            </Array>
          </mxGeometry>
        </mxCell>
        <mxCell id="V7JA6eJu5kfm55jIpqw1-18" value="&lt;div&gt;const car = {&lt;/div&gt;&lt;div&gt;hasEngine: true,&lt;/div&gt;&lt;div&gt;}&lt;/div&gt;" style="rounded=0;whiteSpace=wrap;html=1;fillColor=#ffff88;strokeColor=#36393d;glass=0;shadow=0;" vertex="1" parent="1">
          <mxGeometry x="650" y="280" width="115" height="60" as="geometry" />
        </mxCell>
        <mxCell id="V7JA6eJu5kfm55jIpqw1-50" value="" style="edgeStyle=orthogonalEdgeStyle;rounded=0;orthogonalLoop=1;jettySize=auto;html=1;" edge="1" parent="1" source="V7JA6eJu5kfm55jIpqw1-22" target="V7JA6eJu5kfm55jIpqw1-18">
          <mxGeometry relative="1" as="geometry" />
        </mxCell>
        <mxCell id="V7JA6eJu5kfm55jIpqw1-22" value="&lt;div&gt;const mercedes = {&lt;/div&gt;&lt;div&gt;name: &quot;mercedes&quot;,&lt;/div&gt;&lt;div&gt;__proto__: car,&lt;/div&gt;&lt;div&gt;}&lt;/div&gt;" style="rounded=0;whiteSpace=wrap;html=1;fillColor=#ffcccc;strokeColor=#36393d;glass=0;shadow=0;" vertex="1" parent="1">
          <mxGeometry x="637.5" y="400" width="140" height="60" as="geometry" />
        </mxCell>
        <mxCell id="V7JA6eJu5kfm55jIpqw1-26" style="edgeStyle=orthogonalEdgeStyle;rounded=0;orthogonalLoop=1;jettySize=auto;html=1;entryX=1;entryY=0.5;entryDx=0;entryDy=0;" edge="1" parent="1" source="V7JA6eJu5kfm55jIpqw1-25" target="V7JA6eJu5kfm55jIpqw1-1">
          <mxGeometry relative="1" as="geometry" />
        </mxCell>
        <mxCell id="V7JA6eJu5kfm55jIpqw1-25" value="const bmw = Object.create(null)" style="rounded=0;whiteSpace=wrap;html=1;fillColor=#ffe6cc;strokeColor=#d79b00;" vertex="1" parent="1">
          <mxGeometry x="560" y="70" width="160" height="50" as="geometry" />
        </mxCell>
        <mxCell id="V7JA6eJu5kfm55jIpqw1-30" style="edgeStyle=orthogonalEdgeStyle;rounded=0;orthogonalLoop=1;jettySize=auto;html=1;" edge="1" parent="1" source="V7JA6eJu5kfm55jIpqw1-27" target="V7JA6eJu5kfm55jIpqw1-2">
          <mxGeometry relative="1" as="geometry">
            <Array as="points">
              <mxPoint x="280" y="150" />
            </Array>
          </mxGeometry>
        </mxCell>
        <mxCell id="V7JA6eJu5kfm55jIpqw1-27" value="const emptyObj = {}" style="rounded=0;whiteSpace=wrap;html=1;fillColor=#ffff88;strokeColor=#36393d;glass=0;shadow=0;" vertex="1" parent="1">
          <mxGeometry x="220" y="280" width="110" height="40" as="geometry" />
        </mxCell>
        <mxCell id="V7JA6eJu5kfm55jIpqw1-32" style="edgeStyle=orthogonalEdgeStyle;rounded=0;orthogonalLoop=1;jettySize=auto;html=1;entryX=0;entryY=0.5;entryDx=0;entryDy=0;" edge="1" parent="1" source="V7JA6eJu5kfm55jIpqw1-31" target="V7JA6eJu5kfm55jIpqw1-2">
          <mxGeometry relative="1" as="geometry">
            <Array as="points">
              <mxPoint x="220" y="140" />
            </Array>
          </mxGeometry>
        </mxCell>
        <mxCell id="V7JA6eJu5kfm55jIpqw1-31" value="Function.prototype" style="rounded=0;whiteSpace=wrap;html=1;fillColor=#dae8fc;strokeColor=#6c8ebf;" vertex="1" parent="1">
          <mxGeometry x="90" y="200" width="110" height="40" as="geometry" />
        </mxCell>
        <mxCell id="V7JA6eJu5kfm55jIpqw1-48" value="" style="edgeStyle=orthogonalEdgeStyle;rounded=0;orthogonalLoop=1;jettySize=auto;html=1;" edge="1" parent="1" source="V7JA6eJu5kfm55jIpqw1-33" target="V7JA6eJu5kfm55jIpqw1-31">
          <mxGeometry relative="1" as="geometry" />
        </mxCell>
        <mxCell id="V7JA6eJu5kfm55jIpqw1-33" value="&lt;div&gt;function fn() {&lt;/div&gt;&lt;div&gt;console.log(&quot;hello, world!&quot;);&lt;/div&gt;&lt;div&gt;}&lt;/div&gt;" style="rounded=0;whiteSpace=wrap;html=1;fillColor=#ffff88;strokeColor=#36393d;glass=0;shadow=0;" vertex="1" parent="1">
          <mxGeometry x="50" y="280" width="160" height="60" as="geometry" />
        </mxCell>
        <mxCell id="V7JA6eJu5kfm55jIpqw1-36" style="edgeStyle=orthogonalEdgeStyle;rounded=0;orthogonalLoop=1;jettySize=auto;html=1;entryX=0;entryY=0.5;entryDx=0;entryDy=0;fillColor=#ffff88;strokeColor=#36393d;" edge="1" parent="1" source="V7JA6eJu5kfm55jIpqw1-35" target="V7JA6eJu5kfm55jIpqw1-1">
          <mxGeometry relative="1" as="geometry" />
        </mxCell>
        <mxCell id="V7JA6eJu5kfm55jIpqw1-35" value="const emptyWithoutProto = Object.create(null)" style="rounded=0;whiteSpace=wrap;html=1;fillColor=#ffe6cc;strokeColor=#d79b00;" vertex="1" parent="1">
          <mxGeometry x="60" y="70" width="170" height="50" as="geometry" />
        </mxCell>
        <mxCell id="V7JA6eJu5kfm55jIpqw1-38" style="edgeStyle=orthogonalEdgeStyle;rounded=0;orthogonalLoop=1;jettySize=auto;html=1;entryX=0;entryY=0.25;entryDx=0;entryDy=0;" edge="1" parent="1" source="V7JA6eJu5kfm55jIpqw1-37" target="V7JA6eJu5kfm55jIpqw1-2">
          <mxGeometry relative="1" as="geometry">
            <Array as="points">
              <mxPoint x="-15" y="130" />
            </Array>
          </mxGeometry>
        </mxCell>
        <mxCell id="V7JA6eJu5kfm55jIpqw1-37" value="Number.prototype" style="rounded=0;whiteSpace=wrap;html=1;fillColor=#dae8fc;strokeColor=#6c8ebf;" vertex="1" parent="1">
          <mxGeometry x="-70" y="200" width="110" height="40" as="geometry" />
        </mxCell>
        <mxCell id="V7JA6eJu5kfm55jIpqw1-42" style="edgeStyle=orthogonalEdgeStyle;rounded=0;orthogonalLoop=1;jettySize=auto;html=1;entryX=0.5;entryY=1;entryDx=0;entryDy=0;" edge="1" parent="1" source="V7JA6eJu5kfm55jIpqw1-39" target="V7JA6eJu5kfm55jIpqw1-37">
          <mxGeometry relative="1" as="geometry" />
        </mxCell>
        <mxCell id="V7JA6eJu5kfm55jIpqw1-39" value="const num = 12" style="rounded=0;whiteSpace=wrap;html=1;fillColor=#ffff88;strokeColor=#36393d;glass=0;shadow=0;" vertex="1" parent="1">
          <mxGeometry x="-70" y="280" width="110" height="50" as="geometry" />
        </mxCell>
        <mxCell id="V7JA6eJu5kfm55jIpqw1-44" style="edgeStyle=orthogonalEdgeStyle;rounded=0;orthogonalLoop=1;jettySize=auto;html=1;" edge="1" parent="1" source="V7JA6eJu5kfm55jIpqw1-43" target="V7JA6eJu5kfm55jIpqw1-2">
          <mxGeometry relative="1" as="geometry">
            <Array as="points">
              <mxPoint x="-155" y="190" />
              <mxPoint x="370" y="190" />
            </Array>
          </mxGeometry>
        </mxCell>
        <mxCell id="V7JA6eJu5kfm55jIpqw1-43" value="Boolean.prototype" style="rounded=0;whiteSpace=wrap;html=1;fillColor=#dae8fc;strokeColor=#6c8ebf;" vertex="1" parent="1">
          <mxGeometry x="-210" y="200" width="110" height="40" as="geometry" />
        </mxCell>
        <mxCell id="V7JA6eJu5kfm55jIpqw1-47" value="" style="edgeStyle=orthogonalEdgeStyle;rounded=0;orthogonalLoop=1;jettySize=auto;html=1;" edge="1" parent="1" source="V7JA6eJu5kfm55jIpqw1-45" target="V7JA6eJu5kfm55jIpqw1-43">
          <mxGeometry relative="1" as="geometry" />
        </mxCell>
        <mxCell id="V7JA6eJu5kfm55jIpqw1-45" value="const isAuth = false" style="rounded=0;whiteSpace=wrap;html=1;fillColor=#ffff88;strokeColor=#36393d;glass=0;shadow=0;" vertex="1" parent="1">
          <mxGeometry x="-215" y="280" width="120" height="50" as="geometry" />
        </mxCell>
        <mxCell id="V7JA6eJu5kfm55jIpqw1-75" value="[[Prototype]]" style="text;html=1;align=center;verticalAlign=middle;resizable=0;points=[];autosize=1;fontStyle=0;fontColor=#2095ee;" vertex="1" parent="1">
          <mxGeometry x="-160" y="250" width="90" height="30" as="geometry" />
        </mxCell>
        <mxCell id="V7JA6eJu5kfm55jIpqw1-81" value="[[Prototype]]" style="text;html=1;align=center;verticalAlign=middle;resizable=0;points=[];autosize=1;fontStyle=0;fontColor=#2095ee;" vertex="1" parent="1">
          <mxGeometry x="-20" y="250" width="90" height="30" as="geometry" />
        </mxCell>
        <mxCell id="V7JA6eJu5kfm55jIpqw1-82" value="[[Prototype]]" style="text;html=1;align=center;verticalAlign=middle;resizable=0;points=[];autosize=1;fontStyle=0;fontColor=#2095ee;" vertex="1" parent="1">
          <mxGeometry x="130" y="250" width="90" height="30" as="geometry" />
        </mxCell>
        <mxCell id="V7JA6eJu5kfm55jIpqw1-83" value="[[Prototype]]" style="text;html=1;align=center;verticalAlign=middle;resizable=0;points=[];autosize=1;fontStyle=0;fontColor=#2095ee;" vertex="1" parent="1">
          <mxGeometry x="20" y="160" width="90" height="30" as="geometry" />
        </mxCell>
        <mxCell id="V7JA6eJu5kfm55jIpqw1-84" value="[[Prototype]]" style="text;html=1;align=center;verticalAlign=middle;resizable=0;points=[];autosize=1;fontStyle=0;fontColor=#2095ee;" vertex="1" parent="1">
          <mxGeometry x="-50" y="100" width="90" height="30" as="geometry" />
        </mxCell>
        <mxCell id="V7JA6eJu5kfm55jIpqw1-85" value="[[Prototype]]" style="text;html=1;align=center;verticalAlign=middle;resizable=0;points=[];autosize=1;fontStyle=0;fontColor=#2095ee;" vertex="1" parent="1">
          <mxGeometry x="140" y="140" width="90" height="30" as="geometry" />
        </mxCell>
        <mxCell id="V7JA6eJu5kfm55jIpqw1-86" value="[[Prototype]]" style="text;html=1;align=center;verticalAlign=middle;resizable=0;points=[];autosize=1;fontStyle=0;fontColor=#2095ee;" vertex="1" parent="1">
          <mxGeometry x="200" y="220" width="90" height="30" as="geometry" />
        </mxCell>
        <mxCell id="V7JA6eJu5kfm55jIpqw1-87" value="[[Prototype]]" style="text;html=1;align=center;verticalAlign=middle;resizable=0;points=[];autosize=1;fontStyle=0;fontColor=#2095ee;" vertex="1" parent="1">
          <mxGeometry x="280" y="60" width="90" height="30" as="geometry" />
        </mxCell>
        <mxCell id="V7JA6eJu5kfm55jIpqw1-89" value="[[Prototype]]" style="text;html=1;align=center;verticalAlign=middle;resizable=0;points=[];autosize=1;fontStyle=0;fontColor=#2095ee;" vertex="1" parent="1">
          <mxGeometry x="380" y="80" width="90" height="30" as="geometry" />
        </mxCell>
        <mxCell id="V7JA6eJu5kfm55jIpqw1-90" value="[[Prototype]]" style="text;html=1;align=center;verticalAlign=middle;resizable=0;points=[];autosize=1;fontStyle=0;fontColor=#2095ee;" vertex="1" parent="1">
          <mxGeometry x="490" y="40" width="90" height="30" as="geometry" />
        </mxCell>
        <mxCell id="V7JA6eJu5kfm55jIpqw1-91" value="[[Prototype]]" style="text;html=1;align=center;verticalAlign=middle;resizable=0;points=[];autosize=1;fontStyle=0;fontColor=#2095ee;" vertex="1" parent="1">
          <mxGeometry x="390" y="170" width="90" height="30" as="geometry" />
        </mxCell>
        <mxCell id="V7JA6eJu5kfm55jIpqw1-92" value="[[Prototype]]" style="text;html=1;align=center;verticalAlign=middle;resizable=0;points=[];autosize=1;fontStyle=0;fontColor=#2095ee;" vertex="1" parent="1">
          <mxGeometry x="390" y="250" width="90" height="30" as="geometry" />
        </mxCell>
        <mxCell id="V7JA6eJu5kfm55jIpqw1-93" value="[[Prototype]]" style="text;html=1;align=center;verticalAlign=middle;resizable=0;points=[];autosize=1;fontStyle=0;fontColor=#2095ee;" vertex="1" parent="1">
          <mxGeometry x="777.5" y="100" width="90" height="30" as="geometry" />
        </mxCell>
        <mxCell id="V7JA6eJu5kfm55jIpqw1-94" value="[[Prototype]]" style="text;html=1;align=center;verticalAlign=middle;resizable=0;points=[];autosize=1;fontStyle=0;fontColor=#2095ee;" vertex="1" parent="1">
          <mxGeometry x="520" y="150" width="90" height="30" as="geometry" />
        </mxCell>
        <mxCell id="V7JA6eJu5kfm55jIpqw1-95" value="[[Prototype]]" style="text;html=1;align=center;verticalAlign=middle;resizable=0;points=[];autosize=1;fontStyle=0;fontColor=#2095ee;" vertex="1" parent="1">
          <mxGeometry x="510" y="250" width="90" height="30" as="geometry" />
        </mxCell>
        <mxCell id="V7JA6eJu5kfm55jIpqw1-96" value="[[Prototype]]" style="text;html=1;align=center;verticalAlign=middle;resizable=0;points=[];autosize=1;fontStyle=0;fontColor=#2095ee;" vertex="1" parent="1">
          <mxGeometry x="637.5" y="250" width="90" height="30" as="geometry" />
        </mxCell>
        <mxCell id="V7JA6eJu5kfm55jIpqw1-97" value="[[Prototype]]" style="text;html=1;align=center;verticalAlign=middle;resizable=0;points=[];autosize=1;fontStyle=0;fontColor=#2095ee;" vertex="1" parent="1">
          <mxGeometry x="697.5" y="360" width="90" height="30" as="geometry" />
        </mxCell>
        <mxCell id="V7JA6eJu5kfm55jIpqw1-98" value="[[Prototype]]" style="text;html=1;align=center;verticalAlign=middle;resizable=0;points=[];autosize=1;fontStyle=0;fontColor=#2095ee;" vertex="1" parent="1">
          <mxGeometry x="850" y="360" width="90" height="30" as="geometry" />
        </mxCell>
      </root>
    </mxGraphModel>
  </diagram>
</mxfile>
